<svg xmlns="http://www.w3.org/2000/svg" viewBox="0 0 100 80">

  <rect x="8" y="12" width="84" height="10" fill="#C4956A" stroke="#8B6D3F" stroke-width="0.8"/>
  <line x1="12" y1="14" x2="12" y2="20" stroke="#B08040" stroke-width="0.5"/>
  <line x1="24" y1="14" x2="24" y2="20" stroke="#B08040" stroke-width="0.5"/>
  <line x1="36" y1="14" x2="36" y2="20" stroke="#B08040" stroke-width="0.5"/>
  <line x1="48" y1="14" x2="48" y2="20" stroke="#B08040" stroke-width="0.5"/>
  <line x1="60" y1="14" x2="60" y2="20" stroke="#B08040" stroke-width="0.5"/>
  <line x1="72" y1="14" x2="72" y2="20" stroke="#B08040" stroke-width="0.5"/>
  <line x1="84" y1="14" x2="84" y2="20" stroke="#B08040" stroke-width="0.5"/>
  <rect x="8" y="23" width="84" height="10" fill="#D4A878" stroke="#8B6D3F" stroke-width="0.8"/>
  <line x1="12" y1="25" x2="12" y2="31" stroke="#B08040" stroke-width="0.5"/>
  <line x1="24" y1="25" x2="24" y2="31" stroke="#B08040" stroke-width="0.5"/>
  <line x1="36" y1="25" x2="36" y2="31" stroke="#B08040" stroke-width="0.5"/>
  <line x1="48" y1="25" x2="48" y2="31" stroke="#B08040" stroke-width="0.5"/>
  <line x1="60" y1="25" x2="60" y2="31" stroke="#B08040" stroke-width="0.5"/>
  <line x1="72" y1="25" x2="72" y2="31" stroke="#B08040" stroke-width="0.5"/>
  <line x1="84" y1="25" x2="84" y2="31" stroke="#B08040" stroke-width="0.5"/>
  <rect x="8" y="34" width="84" height="10" fill="#C4956A" stroke="#8B6D3F" stroke-width="0.8"/>
  <line x1="12" y1="36" x2="12" y2="42" stroke="#B08040" stroke-width="0.5"/>
  <line x1="24" y1="36" x2="24" y2="42" stroke="#B08040" stroke-width="0.5"/>
  <line x1="36" y1="36" x2="36" y2="42" stroke="#B08040" stroke-width="0.5"/>
  <line x1="48" y1="36" x2="48" y2="42" stroke="#B08040" stroke-width="0.5"/>
  <line x1="60" y1="36" x2="60" y2="42" stroke="#B08040" stroke-width="0.5"/>
  <line x1="72" y1="36" x2="72" y2="42" stroke="#B08040" stroke-width="0.5"/>
  <line x1="84" y1="36" x2="84" y2="42" stroke="#B08040" stroke-width="0.5"/>
  <rect x="8" y="45" width="84" height="10" fill="#D4A878" stroke="#8B6D3F" stroke-width="0.8"/>
  <line x1="12" y1="47" x2="12" y2="53" stroke="#B08040" stroke-width="0.5"/>
  <line x1="24" y1="47" x2="24" y2="53" stroke="#B08040" stroke-width="0.5"/>
  <line x1="36" y1="47" x2="36" y2="53" stroke="#B08040" stroke-width="0.5"/>
  <line x1="48" y1="47" x2="48" y2="53" stroke="#B08040" stroke-width="0.5"/>
  <line x1="60" y1="47" x2="60" y2="53" stroke="#B08040" stroke-width="0.5"/>
  <line x1="72" y1="47" x2="72" y2="53" stroke="#B08040" stroke-width="0.5"/>
  <line x1="84" y1="47" x2="84" y2="53" stroke="#B08040" stroke-width="0.5"/>
  <rect x="8" y="56" width="84" height="10" fill="#C4956A" stroke="#8B6D3F" stroke-width="0.8"/>
  <line x1="12" y1="58" x2="12" y2="64" stroke="#B08040" stroke-width="0.5"/>
  <line x1="24" y1="58" x2="24" y2="64" stroke="#B08040" stroke-width="0.5"/>
  <line x1="36" y1="58" x2="36" y2="64" stroke="#B08040" stroke-width="0.5"/>
  <line x1="48" y1="58" x2="48" y2="64" stroke="#B08040" stroke-width="0.5"/>
  <line x1="60" y1="58" x2="60" y2="64" stroke="#B08040" stroke-width="0.5"/>
  <line x1="72" y1="58" x2="72" y2="64" stroke="#B08040" stroke-width="0.5"/>
  <line x1="84" y1="58" x2="84" y2="64" stroke="#B08040" stroke-width="0.5"/>
  <text x="50" y="75" fill="#5C4A1E" font-size="9" font-weight="600" text-anchor="middle" font-family="sans-serif">Pressure-Treated</text>
</svg>