<svg xmlns="http://www.w3.org/2000/svg" viewBox="0 0 100 80">

  <line x1="10" y1="68" x2="90" y2="68" stroke="#8B8070" stroke-width="2"/>
  <line x1="20" y1="60" x2="20" y2="68" stroke="#5C4A1E" stroke-width="3"/>  <line x1="80" y1="60" x2="80" y2="68" stroke="#5C4A1E" stroke-width="3"/>
  <rect x="12" y="52" width="76" height="9" fill="#C4956A" stroke="#8B6D3F" stroke-width="1.5"/>
  <line x1="32" y1="52" x2="32" y2="61" stroke="#8B6D3F" stroke-width="0.8"/>  <line x1="52" y1="52" x2="52" y2="61" stroke="#8B6D3F" stroke-width="0.8"/>  <line x1="72" y1="52" x2="72" y2="61" stroke="#8B6D3F" stroke-width="0.8"/>
  <line x1="12" y1="34" x2="88" y2="34" stroke="#5C4A1E" stroke-width="2.5"/>  <line x1="12" y1="45" x2="88" y2="45" stroke="#5C4A1E" stroke-width="1.5"/>
  <line x1="12" y1="34" x2="12" y2="52" stroke="#5C4A1E" stroke-width="3"/>  <line x1="50" y1="34" x2="50" y2="52" stroke="#5C4A1E" stroke-width="2.5"/>  <line x1="88" y1="34" x2="88" y2="52" stroke="#5C4A1E" stroke-width="3"/>
  <line x1="25" y1="35" x2="25" y2="51" stroke="#8B6D3F" stroke-width="1.5"/>  <line x1="38" y1="35" x2="38" y2="51" stroke="#8B6D3F" stroke-width="1.5"/>  <line x1="63" y1="35" x2="63" y2="51" stroke="#8B6D3F" stroke-width="1.5"/>  <line x1="76" y1="35" x2="76" y2="51" stroke="#8B6D3F" stroke-width="1.5"/>
  <text x="50" y="76" fill="#5C4A1E" font-size="9" font-weight="600" text-anchor="middle" font-family="sans-serif">Wood railing</text>
</svg>