<svg version="1.1" xmlns="http://www.w3.org/2000/svg" style="display: block;" viewBox="0 0 2048 2048" width="1024" height="1024" preserveAspectRatio="none">
<defs>
	<linearGradient id="Gradient1" gradientUnits="userSpaceOnUse" x1="158.468" y1="2052.33" x2="163.533" y2="2005.84">
		<stop class="stop0" offset="0" stop-opacity="1" stop-color="rgb(180,179,179)"/>
		<stop class="stop1" offset="1" stop-opacity="1" stop-color="rgb(220,220,220)"/>
	</linearGradient>
</defs>
<path transform="translate(0,0)" fill="rgb(255,255,255)" d="M 0 0 L 2048 0 L 2048 2048 L 568.689 2048 L 0 2048 L 0 1946.3 L 0 0 z"/>
<path transform="translate(0,0)" fill="url(#Gradient1)" d="M 0 1946.3 C 2.58561 1948.47 2.92304 1948.2 3.00237 1952.86 C 3.29354 1969.96 3.09574 1987.42 3 2004.51 C 11.4788 2004.63 22.3977 2005.11 30.6252 2004.19 C 31.7736 2003.06 31.9456 2003.05 32.7895 2001.71 L 34.4913 2001.96 L 35.1006 2002.83 C 37.4571 2006.13 37.78 2006.58 40.7618 2009.2 L 42.856 2009.28 C 43.8155 2006.62 44.3493 2005.19 45.5904 2002.59 L 49.3671 2000.9 C 51.7109 2002.56 51.1986 2004.54 51.8781 2008.46 C 52.9191 2007.24 52.6919 2007.83 52.9386 2006.9 C 60.891 2001.08 64.0332 2006.52 69.5947 2007.9 L 70.5094 2007.16 C 74.8696 2004.16 75.5554 2003.54 80.7433 2005.69 C 80.9371 2003.69 81.1764 2002.09 81.7964 2000.17 L 83.5816 1999.7 C 86.2979 2003.79 84.7885 2006.18 87.0668 2007.24 L 88.0318 2006.72 C 92.4474 2004.39 95.437 2002.96 99.5636 2006.94 C 103.9 2008.05 106.162 2005.63 110.667 2005.43 C 113.009 2007.37 113.043 2007.64 113.828 2011.5 C 115.22 2008.64 115.887 2006.21 118.583 2004.82 C 121.914 2006.37 121.369 2007.01 123.656 2010.96 L 125.102 2007.07 C 128.387 2004.97 128.575 2004.57 130.94 2001.52 L 132.028 2000.11 L 133.542 1999.95 L 134.918 2001.55 L 134.106 2004.02 L 135.548 2004.86 L 137.805 2002.49 L 140.336 2002.77 C 141.974 2004.95 142.513 2005.03 142.873 2007.36 L 144.075 2007.96 C 144.532 2005.81 144.824 2003.69 145.033 2001.51 L 146.562 2000.06 L 148.653 2000.74 C 149.135 2003.15 148.742 2003.49 149.989 2004.83 C 154.166 2004.04 153.377 2003.54 156.765 2004.84 C 160.666 2011.56 156.229 2014.56 165.463 2011.6 L 169.825 2013.23 C 178.558 2002.1 174.15 1989.33 186.509 1986.99 C 189.53 1986.41 194.079 1986.17 196.778 1988.08 C 198.412 1995.51 189.696 2003.79 192.104 2005.93 C 195.402 2006.1 200.082 2005.9 202.687 2007.5 C 203.505 2010.69 201.671 2012.91 199.679 2015.49 C 201.341 2017.36 200.312 2016.81 202.746 2017.16 C 207.107 2013.76 205.356 2008.55 209.894 2003.87 L 209.064 2002.93 C 205.663 2002.93 202.332 2003.42 199.586 2001.72 C 196.954 1994.49 199.942 1990.38 206.921 1988.11 C 228.746 1981.02 241.134 2003.36 222.785 2018.11 C 245.4 2027.49 234.728 2012.19 239.441 2001 C 243.089 2000.43 241.55 2000.03 244.331 2001.63 C 247.185 2008.95 242.199 2014.6 248.782 2016.72 L 247.397 2017.3 C 242.033 2012.74 243.86 2004.12 241.006 2002.48 C 239.728 2005.97 239.317 2015.66 240.783 2019.13 C 245.155 2020.26 247.678 2017.88 251.527 2018.06 C 256.92 2018.31 257.461 2021.91 263.208 2018.67 C 264.275 2016.52 264.72 2015.54 265.976 2013.5 C 268.283 2015.65 268.029 2015.98 269.367 2018.99 C 271.721 2020.49 273.623 2020.11 276.47 2020.08 L 277.388 2021 L 277.167 2022.34 C 271.698 2023.48 271.294 2020.94 268.165 2022.97 C 270.191 2027.47 275.283 2027.41 279.298 2025.61 C 283.251 2020.2 282.138 2013.05 282.01 2006.15 C 277.856 2006.2 272.595 2005.81 269.018 2007.54 L 267.507 2010.17 C 267.507 2010.16 267.507 2010.16 267.507 2010.16 L 267.225 2007.56 C 268.782 2005.7 269.183 2004.63 271.964 2004.4 C 296.397 2002.39 278.827 2023.15 280.195 2028.32 C 284.24 2030.21 322.002 2044.17 324.506 2044.22 C 402.819 2045.74 481.27 2044.15 559.583 2045.33 C 562.021 2045.36 566.371 2047.11 568.689 2048 L 0 2048 L 0 1946.3 z"/>
<path transform="translate(0,0)" fill="rgb(234,234,235)" d="M 32.7895 2001.71 L 34.4913 2001.96 L 35.1006 2002.83 C 37.4571 2006.13 37.78 2006.58 40.7618 2009.2 L 42.856 2009.28 C 43.8155 2006.62 44.3493 2005.19 45.5904 2002.59 L 49.3671 2000.9 C 51.7109 2002.56 51.1986 2004.54 51.8781 2008.46 C 52.9191 2007.24 52.6919 2007.83 52.9386 2006.9 C 59.9046 2005.24 65.5954 2004.95 68.6161 2012.5 C 68.4003 2015.7 67.6238 2016.56 66.0332 2019.32 C 48.4885 2021.11 58.131 2017.79 51.0252 2015.91 L 49.4032 2019.64 L 47.7389 2019.54 C 46.9887 2017.07 46.2648 2014.59 45.5674 2012.1 L 46.055 2013.78 L 43.8566 2014.62 C 42.8817 2017.75 41.9606 2019.15 40.4562 2022.04 L 36.1967 2012.28 L 35.2448 2012.53 C 34.312 2016.96 33.817 2019.13 32.2327 2023.38 L 31.8663 2024.34 C 31.7584 2017.63 31.0585 2007.83 32.7895 2001.71 z"/>
<path transform="translate(0,0)" fill="rgb(255,255,255)" d="M 57.6003 2008.71 C 60.068 2007.66 62.92 2008.81 63.9682 2011.28 C 65.0163 2013.75 63.8633 2016.6 61.3936 2017.65 C 58.9271 2018.69 56.0807 2017.54 55.0339 2015.07 C 53.9871 2012.61 55.1357 2009.76 57.6003 2008.71 z"/>
<path transform="translate(0,0)" fill="rgb(234,234,235)" d="M 70.5094 2007.16 C 75.2313 2006.19 76.2102 2006.18 81.0459 2006.4 C 81.5862 2004.89 82.1037 2003.38 82.5981 2001.85 L 83.5602 2002.07 C 84.0615 2006.52 84.795 2014.97 83.172 2019.16 C 80.2458 2021 80.0448 2021.52 76.5957 2021.35 C 72.8917 2019.57 72.8187 2019.26 70.2582 2015.89 C 69.355 2012.23 69.4813 2011.54 69.5947 2007.9 L 70.5094 2007.16 z"/>
<path transform="translate(0,0)" fill="rgb(255,255,255)" d="M 74.5821 2008.65 C 76.9662 2007.49 79.8427 2008.39 81.1268 2010.72 C 82.4108 2013.04 81.6526 2015.96 79.4016 2017.36 C 77.838 2018.33 75.8644 2018.36 74.2698 2017.44 C 72.6751 2016.52 71.7195 2014.79 71.7849 2012.95 C 71.8503 2011.11 72.926 2009.46 74.5821 2008.65 z"/>
<path transform="translate(0,0)" fill="rgb(234,234,235)" d="M 113.828 2011.5 C 115.22 2008.64 115.887 2006.21 118.583 2004.82 C 121.914 2006.37 121.369 2007.01 123.656 2010.96 L 123.314 2012.69 L 124.429 2013.09 L 126.498 2007.03 L 127.778 2006.57 C 128.542 2010.96 125.335 2018.76 123.701 2023.05 C 122.485 2019.76 121.203 2014.54 118.487 2012.86 C 114.502 2016.52 117.362 2019.04 114.002 2019.98 C 110.881 2016.49 109.9 2011.92 109.714 2007.31 L 111.034 2007.5 L 113.828 2011.5 z"/>
<path transform="translate(0,0)" fill="rgb(234,234,235)" d="M 99.1963 2019.42 C 92.0799 2020.92 87.9045 2020.44 86.5734 2012.45 C 88.8818 2005.13 93.2098 2005.83 99.5636 2006.94 C 101.974 2018.89 95.5203 2011.78 90.2992 2015.3 L 90.7475 2016.7 C 95.6821 2018.88 93.3781 2015.89 99.4913 2016.64 L 99.1963 2019.42 z"/>
<path transform="translate(0,0)" fill="rgb(234,234,235)" d="M 135.548 2004.86 L 137.805 2002.49 L 140.336 2002.77 C 141.974 2004.95 142.513 2005.03 142.873 2007.36 L 144.075 2007.96 L 145.645 2008.06 C 145.687 2010.73 145.879 2012.81 145.261 2015.43 L 143.601 2020.47 C 132.964 2020.07 138.845 2012.75 135.548 2004.86 z"/>
<path transform="translate(0,0)" fill="rgb(255,255,255)" d="M 142.873 2007.36 L 144.075 2007.96 L 145.645 2008.06 C 145.687 2010.73 145.879 2012.81 145.261 2015.43 L 143.601 2020.47 C 139.501 2016.56 137.025 2010.96 142.873 2007.36 z"/>
<path transform="translate(0,0)" fill="rgb(234,234,235)" d="M 145.645 2008.06 L 146.432 2003.23 C 148.149 2003.55 150.042 2006.65 153.492 2006.35 C 155.548 2006.17 156.517 2007.51 157.62 2009.07 C 158.125 2013.69 158.214 2014.82 157.677 2019.41 L 156.475 2018.89 C 156.03 2015.61 155.74 2012.8 155.473 2009.5 C 152.641 2007.5 154.213 2008.1 150.48 2007.96 C 147.704 2011.17 147.749 2014.81 147.248 2019.29 L 146.499 2019.19 L 145.261 2015.43 C 145.879 2012.81 145.687 2010.73 145.645 2008.06 z"/>
<path transform="translate(0,0)" fill="rgb(255,255,255)" d="M 204.864 1988.91 C 208.518 1988.82 216.89 1988.31 219.984 1989.66 C 237.391 1997.22 232.266 2012.89 216.79 2018.69 C 212.041 2019.59 207.37 2019.82 202.552 2020.19 C 206.118 2013.49 209.952 2007.5 213.986 2001.08 L 199.632 2000.97 C 201.214 1996.4 202.794 1993.24 204.864 1988.91 z"/>
<path transform="translate(0,0)" fill="rgb(255,255,255)" d="M 182.346 1988.75 L 196.203 1988.87 L 189.288 2007.42 L 201.694 2007.82 L 193.676 2027.48 C 193.129 2027.59 192.588 2027.24 192.056 2027.08 C 191.968 2024.59 191.863 2023.48 191.481 2021.01 C 188.338 2019.02 173.928 2019.91 169.552 2020 C 172.745 2010.75 178.438 1998.08 182.346 1988.75 z"/>
<path transform="translate(0,0)" fill="rgb(234,234,235)" d="M 130.472 2005.25 L 133.662 2006.51 C 135.162 2010.01 133.997 2016.4 133.581 2020.44 L 131.306 2019.28 C 129.766 2014.49 130.319 2010.33 130.472 2005.25 z"/>
<path transform="translate(0,0)" fill="rgb(49,56,63)" d="M 315.448 302.295 C 327.783 302.167 341.904 303.897 342.577 318.921 C 344.171 354.543 341.554 391.012 341.869 426.725 C 341.963 437.438 345.944 448.353 358.13 448.524 C 387.807 448.939 417.455 448.9 447.136 449.971 C 458.651 450.405 471.1 451.501 475.734 438.013 C 478.651 429.523 477.736 417.111 477.731 408.037 L 477.811 355.429 C 477.749 344.213 477.179 331.929 478.314 321.011 C 479.439 310.193 486.535 302.521 497.467 302.271 C 506.223 302.071 509.405 302.399 516.203 308.509 C 520.051 311.967 521.637 317.312 522.113 322.341 C 522.64 339.958 522.232 358.538 522.083 376.133 L 521.182 484.631 L 518.879 878.758 L 517.76 992.557 C 517.487 1013.64 516.907 1035.31 517.428 1056.4 C 518.224 1061.94 516.888 1066.75 521.733 1070.53 C 526.863 1075.11 533.145 1072.01 536.103 1066.77 C 542.714 1055.05 547.397 1041.42 552.424 1028.94 L 587.729 941.988 C 593.604 927.648 599.206 912.249 606.64 898.69 C 613.197 886.732 625.376 886.388 637.501 887.959 C 655.037 890.231 658.057 904.818 663.956 918.673 C 680.096 959.107 694.41 1000.44 710.865 1040.74 C 714.668 1050.06 720.589 1077.87 733.556 1074.88 C 739.846 1069.72 740.95 1061.33 740.992 1053.6 C 741.088 1035.75 741.06 1017.84 741.063 999.986 L 742.267 869.171 C 742.555 849.384 742.551 829.86 742.975 809.841 C 742.704 791.356 765.806 787.879 778.568 796.365 C 789.556 803.672 786.25 825.785 786.116 837.826 L 785.301 896.963 L 783.007 1150.39 C 783.079 1162.14 782.945 1173.88 782.608 1185.63 C 782.401 1192.19 779.762 1222.92 785.8 1226.09 C 801.534 1234.35 814.014 1235.78 829.661 1246.28 C 858.247 1265.45 875.022 1287.17 886.07 1319.75 C 891.887 1335.79 895.851 1344.46 899.409 1362.01 C 895.013 1376.9 885.261 1383.32 868.82 1379.93 C 856.096 1377.31 853.175 1349.09 848.493 1338.8 C 845.229 1331.63 842.221 1322.93 837.806 1316.05 C 823.709 1289.67 807.381 1273.83 778.374 1264.78 C 756.686 1258.02 736.456 1268.42 717.622 1278.46 C 693.58 1291.27 680.788 1320.5 673.976 1346.08 C 671.372 1355.86 669.688 1365.86 668.947 1375.95 C 666.371 1407.72 667.234 1445.5 667.205 1477.75 C 667.159 1527.44 660.133 1588.62 685.807 1632.51 C 698.173 1653.77 718.473 1669.26 742.248 1675.57 C 781.927 1685.07 818.371 1658.49 835.281 1624.67 C 839.861 1615.5 844.701 1606.46 848.309 1596.82 C 853.266 1583.56 852.158 1560.41 871.355 1560.36 C 910.036 1560.25 896.831 1593.87 887.408 1616.47 C 881.727 1629.99 876.701 1642.46 869.072 1654.6 C 864.089 1662.52 858.222 1669.85 851.585 1676.45 C 791.728 1735.87 699.334 1727.1 649.488 1658.77 C 616.155 1613.07 620.1 1551.6 620.758 1498.19 C 621.926 1403.33 605.013 1281.36 712.583 1235.98 C 719.37 1233.09 736.081 1230.25 734.049 1217.51 C 724.33 1190.39 712.785 1163.5 702.407 1136.44 L 662.8 1031.35 C 656.648 1014.95 650.641 998.509 644.323 982.179 C 640.89 973.306 636.713 966.668 625.953 968.179 C 615.826 974.901 601.939 1016.14 596.444 1029.83 C 580.458 1068.72 564.751 1107.72 549.322 1146.83 C 539.971 1170.28 530.695 1194.06 520.075 1216.92 C 517.725 1221.08 514.745 1226.06 510.038 1227.78 C 496.141 1232.86 473.784 1232.38 473.358 1213 C 472.91 1192.55 473.471 1172.65 473.702 1152.42 L 474.665 1036.5 L 477.253 641.719 L 477.931 554.309 C 478.025 535.949 479.673 514.142 475.344 496.272 C 474.175 491.447 461.718 488.828 457.463 488.868 C 423.318 489.187 388.478 486.734 354.523 489.039 C 337.633 490.182 342.072 535.905 342.064 547.998 C 342.004 591.694 342.226 635.39 342.729 679.083 C 342.78 691.058 343.938 723.301 343.217 733.79 C 343.034 736.832 342.15 739.789 340.636 742.433 C 333.84 754.173 314.598 755.572 303.787 749.008 C 292.704 742.279 296.355 725.875 295.86 714.674 C 295.491 706.345 295.89 696.973 295.912 688.558 L 296.616 575.749 L 297.12 407.53 C 297.199 379.081 297.13 350.601 297.755 322.164 C 298.034 309.427 303.162 304.17 315.448 302.295 z"/>
<path transform="translate(0,0)" fill="rgb(49,56,63)" d="M 972.654 800.41 C 995.418 798.211 1018.38 801.545 1039.57 810.129 C 1080.97 827.3 1061.17 836.515 1108.7 811.561 C 1136.01 797.219 1190.21 798.425 1219.41 810.011 C 1333.74 855.38 1354.22 1018.04 1269.51 1101.07 C 1242.82 1127.15 1214.91 1138.21 1180.04 1143.77 C 1153.56 1146.64 1126.98 1141.07 1102.19 1131.36 C 1094.61 1128.4 1081.75 1118.7 1073.6 1119.25 C 1061.1 1120.1 1046.56 1130.38 1033.61 1134.97 C 1020.64 1139.5 1007.17 1142.47 993.491 1143.82 C 955.21 1147.07 917.209 1134.96 887.869 1110.16 C 779.583 1020.31 824.185 813.139 972.654 800.41 z"/>
<path transform="translate(0,0)" fill="rgb(255,255,255)" d="M 1165.6 839.43 C 1179.88 839.356 1197.3 844.833 1209.85 851.44 C 1307.31 902.745 1295.91 1067.03 1190.75 1100.9 C 1189.43 1101.27 1188.11 1101.61 1186.78 1101.93 C 1156.33 1109.15 1086.7 1100.62 1118.04 1057.49 C 1126.96 1045.2 1132.4 1021.71 1134.88 1007.03 C 1140.74 972.384 1138.94 933.336 1125.75 900.397 C 1121.57 889.651 1105.74 868.1 1114.38 857.926 C 1125.8 845.827 1149.63 840.591 1165.6 839.43 z"/>
<path transform="translate(0,0)" fill="rgb(255,255,255)" d="M 978.982 839.371 C 980.607 839.149 986.58 838.885 988.521 839.074 C 1003.47 840.534 1025.51 846.825 1035.66 858.428 C 1038.72 861.933 1039.93 865.837 1038.82 870.285 C 1036.5 879.581 1029.52 888.557 1025.56 897.199 C 1017.36 915.121 1012.93 937.074 1011.1 956.511 C 1008.98 981.531 1011.31 1006.73 1017.98 1030.93 C 1021.48 1043.89 1026.31 1053.9 1032.85 1065.6 C 1038.36 1075.45 1038.79 1084.82 1028.46 1091.61 C 1008.08 1105.01 985.165 1105.75 961.792 1102.31 C 947.892 1098.87 937.488 1094.58 925.884 1086.03 C 836.914 1020.48 862.628 855.479 978.982 839.371 z"/>
<path transform="translate(0,0)" fill="rgb(255,255,255)" d="M 1070.89 908.828 C 1075.92 908.56 1079.45 908.748 1082.53 913.43 C 1097.21 935.791 1098.12 1022.03 1076.66 1037.75 C 1073.56 1037.53 1069.66 1037.14 1067.72 1034.64 C 1048.98 1010.45 1051.39 928.864 1070.89 908.828 z"/>
<path transform="translate(0,0)" fill="rgb(49,56,63)" d="M 1383.78 800.425 C 1413.51 800.293 1444.64 799.548 1474.34 800.877 C 1509.11 802.434 1533.03 814.276 1556.04 840.55 C 1590.71 879.63 1585.17 929.894 1584.44 978.039 C 1583.54 1037.88 1588.96 1080.01 1538.81 1122.53 C 1525.42 1131.65 1513.51 1137.61 1497.69 1141.77 C 1490.03 1143.78 1482.2 1145.05 1474.3 1145.54 C 1445.77 1147.54 1413.41 1145.01 1384.48 1146 C 1375.28 1146.32 1363.99 1138.95 1363.12 1129.14 C 1361.51 1110.95 1362.52 1091.63 1362.73 1073.22 C 1362.83 1038.64 1363.16 1004.07 1363.72 969.5 L 1364.61 863.929 C 1364.74 849.027 1364.32 834.051 1364.72 819.191 C 1365.08 806.343 1371.92 801.483 1383.78 800.425 z"/>
<path transform="translate(0,0)" fill="rgb(255,255,255)" d="M 1430.85 839.337 C 1486.93 834.666 1536.82 858.454 1538.05 919.965 C 1538.81 958.343 1537.46 998.442 1536.53 1036.88 C 1535.98 1059.79 1520.29 1080.19 1503.04 1094.18 C 1497.44 1098.07 1489.12 1102.7 1482.41 1104.09 C 1466.09 1107.46 1426.54 1112.64 1413.33 1102.21 C 1407.56 1097.64 1409.08 1054.71 1409.1 1046.35 L 1410.02 953.054 L 1410.64 888.142 C 1410.73 876.797 1410.62 865.325 1411.12 854.007 C 1411.62 842.746 1421.97 840.593 1430.85 839.337 z"/>
<path transform="translate(0,0)" fill="rgb(49,56,63)" d="M 935.934 1257.21 C 955.82 1256.23 978.45 1256.78 998.522 1256.74 C 1012.6 1256.72 1039.02 1256.11 1051.84 1258.61 C 1061.88 1260.48 1071.42 1264.47 1079.81 1270.31 C 1119.29 1297.94 1117.43 1334.74 1117.21 1376.53 C 1116.96 1424.73 1116.05 1444.33 1081.01 1479.9 C 1070.27 1490.8 1081.13 1527.31 1084.35 1542.99 L 1100.58 1621.24 C 1088.54 1649.75 1051.74 1638.78 1051.68 1607.79 C 1051.67 1602.01 1046.34 1579.38 1044.87 1572.23 C 1042.69 1558.95 1033.61 1507.79 1028 1499.67 C 1025.03 1495.36 1021.2 1493.47 1016.15 1492.53 C 1005.41 1490.54 983.048 1488.81 973.862 1495.68 C 969.846 1498.68 968.399 1503.58 967.576 1508.32 C 966.092 1516.85 966.842 1526.29 966.862 1534.94 L 966.693 1588.81 C 966.638 1598.1 967.029 1607.92 966.004 1617.06 C 964.125 1633.8 948.916 1639.93 933.878 1636.48 C 924.156 1634.25 920.617 1624.49 920.785 1615.54 C 921.088 1599.34 921.448 1583.23 921.603 1567.05 L 923.098 1437.89 L 924.082 1334.4 C 924.137 1315.92 923.701 1297.37 924.048 1278.91 C 924.255 1267.88 926.092 1262.13 935.934 1257.21 z"/>
<path transform="translate(0,0)" fill="rgb(255,255,255)" d="M 990.314 1292.42 C 1016.16 1291.72 1044.29 1288.15 1061.18 1311.83 C 1065.27 1317.46 1068.14 1323.87 1069.62 1330.67 C 1072.9 1346.16 1071.13 1400.32 1069.15 1417.92 C 1067.61 1431.62 1057.33 1443.32 1045.94 1451.15 C 1031.9 1457.72 1014.39 1454.88 998.664 1455.48 C 965.996 1456.71 968.431 1441.26 968.676 1414.96 C 968.999 1380.32 968.294 1345 969.655 1310.35 C 970.183 1296.92 978.361 1293.4 990.314 1292.42 z"/>
<path transform="translate(0,0)" fill="rgb(49,56,63)" d="M 1053.94 305.156 C 1069.58 304.305 1092.17 305.352 1108.25 305.293 C 1120.01 305.249 1144.91 305.257 1155.64 306.659 C 1163.61 307.692 1171.39 309.812 1178.79 312.958 C 1199.83 322.08 1216.39 339.204 1224.79 360.549 C 1227.7 368.114 1229.67 376.006 1230.67 384.049 C 1233.52 406.917 1233.05 470.586 1224.54 490.701 C 1221.31 498.316 1216.85 505.754 1211.45 512.036 C 1200.71 524.56 1187.82 532.319 1189.37 550.733 C 1191.28 573.343 1217.52 662.722 1211.46 674.904 C 1208.95 679.947 1203.17 682.867 1197.98 684.247 C 1191.56 685.95 1184.06 686.07 1178.31 682.363 C 1165.39 674.041 1161.96 638.805 1159.01 623.779 C 1155.26 607.266 1148.88 543.471 1129.87 542.362 C 1085.87 539.793 1081.91 540.669 1081.94 583.446 L 1082.01 635.144 C 1082.03 649.125 1084.82 674.509 1071.79 681.994 C 1059.83 688.866 1045.93 686.584 1038.26 675.096 C 1036.6 664.653 1037.5 643.361 1037.62 631.687 L 1038.14 558.921 L 1039.79 419.499 C 1040.01 389.638 1039.97 359.773 1040.33 329.917 C 1040.49 316.683 1041.04 310.969 1053.94 305.156 z"/>
<path transform="translate(0,0)" fill="rgb(255,255,255)" d="M 1097.8 343.15 C 1122.78 342.392 1155.81 337.669 1172.57 359.345 C 1176.25 364.093 1182.13 372.39 1183.04 378.151 C 1187.29 405.059 1184.66 434.174 1184.43 461.445 C 1184.2 476.776 1175.61 489.767 1164.54 498.847 C 1153.62 506.23 1141.44 506.326 1129.78 505.633 C 1108.51 503.956 1083.37 513.49 1084.33 480.899 C 1085.54 440.092 1082.95 393.824 1086.56 352.922 C 1086.95 348.51 1094.08 344.752 1097.8 343.15 z"/>
<path transform="translate(0,0)" fill="rgb(49,56,63)" d="M 1236.53 1255.47 C 1252.88 1255.29 1281.2 1251.56 1285.96 1272.03 C 1290.61 1292.05 1295.11 1312.16 1299.58 1332.22 L 1331.5 1479.8 L 1352.96 1576.21 C 1356.15 1590.84 1359.62 1605.09 1361.82 1619.93 C 1365.29 1640.14 1328.43 1642.92 1321.95 1631.7 C 1313.08 1616.36 1308.22 1579.32 1304.44 1561.97 C 1296.06 1523.54 1288.96 1524.3 1254.49 1524.64 C 1242.47 1524.66 1210.75 1521.87 1201.49 1528.28 C 1185.11 1541.11 1185.94 1572.81 1179.75 1591.65 C 1173.88 1609.48 1177.53 1625.96 1159.24 1636.82 C 1146.69 1637.97 1134.77 1639.14 1128.65 1626.03 C 1128.38 1612.66 1137.59 1576.84 1140.97 1561.96 L 1168.16 1444.07 L 1192.91 1334.25 C 1197.12 1315.31 1201.29 1296.31 1205.7 1277.42 C 1210.17 1258.32 1218.22 1256.16 1236.53 1255.47 z"/>
<path transform="translate(0,0)" fill="rgb(255,255,255)" d="M 1242.75 1331.68 C 1249.15 1331.63 1253.89 1333.03 1255.43 1340.24 C 1264.58 1383.03 1274.96 1426.02 1282.2 1469.12 C 1285.68 1489.84 1264.62 1487.16 1250.92 1487.04 C 1202.4 1487.57 1206.41 1483.46 1216.24 1436.89 L 1226.78 1387.05 C 1229.74 1373.06 1233.47 1340.39 1242.75 1331.68 z"/>
<path transform="translate(0,0)" fill="rgb(49,56,63)" d="M 879.705 304.368 C 886.466 304.129 895.117 304.498 901.761 304.263 C 935.801 303.062 935.083 316.388 941.552 344.44 C 944.595 357.637 948.006 373.364 951.015 387.039 L 980.776 525.49 C 988.271 558.184 995.451 590.949 1002.31 623.782 C 1005.49 638.76 1009.11 654.127 1011.15 669.268 C 1013.51 688.09 977.597 691.194 971.208 677.971 C 962.025 658.964 959.55 629.373 954.694 608.725 C 947.647 578.765 944.937 572.755 914.25 572.945 C 897.685 573.156 878.16 571.983 861.509 573.525 C 836.178 575.871 837.294 621.663 830.731 640.997 C 826.143 654.515 827.452 679.857 808.992 684.355 C 790.373 688.891 774.974 679.974 780.72 659.914 C 785.93 636.885 791.15 614.462 796.393 591.754 L 823.093 474.455 L 846.955 368.961 C 850.093 354.894 852.626 340.647 855.933 326.649 C 859.312 312.346 865.5 306.114 879.705 304.368 z"/>
<path transform="translate(0,0)" fill="rgb(255,255,255)" d="M 892.131 381.003 C 901.062 380.359 904.298 381.919 906.403 391.219 C 913.615 423.086 919.87 455.041 926.73 487.015 C 928.842 496.86 936.353 522.955 929.17 530.751 C 924.199 536.147 909.567 535.197 902.708 535.169 C 892.203 535.362 873.776 537.777 865.115 531.424 C 862.459 529.476 861.478 527.851 861.215 524.594 C 860.228 512.383 882.311 405.074 887.52 389.018 C 888.557 385.824 889.948 383.539 892.131 381.003 z"/>
<path transform="translate(0,0)" fill="rgb(49,56,63)" d="M 933.319 1670.47 C 987.303 1668.57 1049.2 1670.41 1103.98 1670.59 L 1412.29 1670.61 L 1623.18 1670.71 L 1684.04 1670.68 C 1692.13 1670.64 1707.72 1669.64 1714.98 1670.74 C 1735.36 1673.81 1736.5 1700.44 1720.53 1711.07 C 1712.99 1713.01 1667.94 1712.02 1657.63 1711.97 L 1512.35 1711.19 L 1176.72 1709.66 C 1096.76 1709.61 1011.4 1710.93 931.691 1708.89 C 919.441 1698.85 915.633 1673.79 933.319 1670.47 z"/>
<path transform="translate(0,0)" fill="rgb(49,56,63)" d="M 586.075 305.218 C 611.26 303.185 638.682 305.49 664.219 304.91 C 688.376 304.792 711.119 304.823 735.381 305.312 C 758.468 305.778 764.463 333.842 745.702 341.914 C 733.189 347.442 707.911 342.017 696.187 344.053 C 672.343 348.194 614.86 328.729 618.599 367.922 C 620.394 386.745 617.557 405.117 618.336 423.892 C 618.603 430.301 618.74 439.036 623.616 444.334 C 644.777 462.481 688.041 440.68 709.961 457.932 C 740.005 511.47 642.56 476.646 624.544 494.695 C 615.146 504.259 617.09 530.007 617.045 543.07 L 616.837 602.5 C 615.821 649.583 619.928 648.336 667.312 648.245 C 688.952 648.203 711.462 648.059 733.098 648.273 C 753.579 648.476 766.372 661.915 751.272 679.871 C 748.26 682.939 743.274 684.623 739.031 684.695 C 695.135 685.443 651.879 684.578 607.903 684.592 C 592.833 684.597 571.853 686.616 571.172 663.937 C 570.473 640.66 570.899 616.845 570.969 593.523 L 571.888 453.595 L 572.26 365.644 C 572.321 351.743 571.692 331.359 573.707 317.504 C 574.524 311.882 581.271 307.698 586.075 305.218 z"/>
<path transform="translate(0,0)" fill="rgb(49,56,63)" d="M 549.35 720.095 C 559.374 719.126 574.404 719.587 584.847 719.625 L 642.226 719.862 L 829.068 720.625 L 1385.31 721.5 C 1406.97 721.603 1417.51 740.601 1399.73 753.688 C 1390.74 757.176 1353.07 755.847 1340.91 755.83 L 1228.03 755.632 L 738.163 754.916 L 603.008 754.713 C 588.05 754.594 573.262 754.967 558.324 755.193 C 540.08 755.469 542.927 729.926 549.35 720.095 z"/>
<path transform="translate(0,0)" fill="rgb(49,56,63)" d="M 863.69 1179.14 C 886.042 1177.96 916.184 1178.78 939.151 1178.79 L 1077.46 1178.87 L 1492.05 1179 C 1507.78 1179 1611.9 1177.43 1618.02 1179.66 C 1622.28 1181.22 1625.53 1184.25 1627.34 1188.41 C 1629.49 1193.37 1629.33 1198.86 1627.35 1203.85 C 1625.44 1208.66 1622.87 1210.1 1618.28 1212.19 C 1611.33 1213.78 1563.37 1212.99 1552.8 1212.98 L 1396.33 1212.98 L 1044.68 1212.87 L 927.023 1212.72 C 909.557 1212.7 892.112 1212.73 874.657 1212.92 C 863.298 1213.04 851.528 1204.19 854.921 1191.86 C 856.611 1185.72 858.857 1183.07 863.69 1179.14 z"/>
<path transform="translate(0,0)" fill="rgb(49,56,63)" d="M 1401.73 1256.3 C 1442.18 1255.06 1483.65 1256.64 1524.16 1257.01 C 1546.3 1257.21 1550.06 1286.07 1535.31 1292.3 C 1517.03 1300.01 1440.69 1281.77 1431.28 1303.59 C 1425.15 1317.8 1425.26 1369.66 1428.25 1387.52 C 1433.27 1418.2 1514.36 1386.59 1517.96 1416.32 C 1523.85 1464.97 1448.99 1421.33 1429.02 1450.35 L 1428.37 1451.3 C 1424.62 1462.73 1425.78 1481.52 1425.87 1494.2 L 1427.29 1579.37 C 1427.42 1591.89 1427.79 1604.22 1427.26 1616.84 C 1427.41 1636.68 1401.21 1642.94 1387.78 1633.36 C 1375.55 1624.64 1378.89 1590.71 1378.95 1576.75 L 1379.75 1488.53 L 1380.86 1353.43 C 1381.01 1329.06 1380.88 1304.67 1381.47 1280.31 C 1381.85 1264.98 1386.27 1258.65 1401.73 1256.3 z"/>
<path transform="translate(0,0)" fill="rgb(49,56,63)" d="M 1578.67 1256.34 C 1589.76 1255.9 1601.53 1256.27 1612.67 1256.34 C 1646.19 1256.57 1679.65 1256.03 1713.16 1256.07 C 1720.78 1256.08 1727.96 1256.65 1733.37 1262.88 C 1736.9 1266.96 1738.5 1271.47 1738.12 1277.04 C 1733.65 1306.56 1694.46 1284.86 1679.93 1297.51 C 1673.11 1303.45 1674.12 1342.19 1673.97 1351.6 L 1673.21 1416.28 L 1671.95 1590.5 C 1671.9 1602.42 1673.92 1620.47 1668.35 1630.96 C 1659.32 1647.56 1627.93 1641.87 1625.98 1623.23 C 1623.92 1603.61 1625.2 1580.98 1625.38 1561.17 L 1626.71 1389.63 C 1626.94 1364.93 1628.33 1330.46 1625.94 1306.51 C 1623.72 1284.22 1583.82 1299.84 1569.08 1289.49 C 1564.82 1286.48 1561.99 1281.85 1561.25 1276.69 C 1559.41 1264.35 1567.41 1257.96 1578.67 1256.34 z"/>
<path transform="translate(0,0)" fill="rgb(49,56,63)" d="M 1256.11 305.206 C 1299.03 304.054 1343.16 306.936 1386.22 305.193 C 1402.88 304.519 1417.79 308.946 1414.97 329.208 C 1412.33 348.134 1377.02 342.85 1362.08 343.09 C 1354.43 348.222 1351.99 351.96 1351.56 361.461 C 1350.39 387.354 1351.15 413.369 1350.74 439.32 L 1348.97 634.5 C 1349.08 646.894 1351.15 668.041 1343.81 678.079 C 1336.92 687.494 1319.54 687.721 1310.61 680.824 C 1300.52 673.034 1302.88 660.444 1302.46 649.184 C 1302.5 635.06 1302.66 620.826 1302.73 606.652 L 1304.02 437.406 L 1304.52 386.701 C 1304.6 377.428 1305.12 364.173 1303.91 355.302 L 1303.72 353.965 C 1291.39 333.34 1265.05 349.094 1249.31 340.467 C 1235.56 332.93 1237.95 310.566 1256.11 305.206 z"/>
<path transform="translate(0,0)" fill="rgb(234,234,235)" d="M 311.161 2005.25 C 314.446 2006.04 314.803 2005.86 317.382 2008.13 C 318.746 2011.21 317.962 2012.97 317.261 2016.32 C 314.459 2016.53 314.249 2016.84 311.802 2015.66 C 310.013 2011.87 310.871 2009.85 311.161 2005.25 z"/>
</svg>