<svg xmlns="http://www.w3.org/2000/svg" viewBox="0 0 100 80">

  <line x1="5" y1="74" x2="95" y2="74" stroke="#8B8070" stroke-width="2"/>
  <line x1="5" y1="74" x2="15" y2="82" stroke="#8B8070" stroke-width="1"/>
  <line x1="30" y1="74" x2="40" y2="82" stroke="#8B8070" stroke-width="1"/>
  <line x1="55" y1="74" x2="65" y2="82" stroke="#8B8070" stroke-width="1"/>
  <line x1="80" y1="74" x2="90" y2="82" stroke="#8B8070" stroke-width="1"/>
  <line x1="20" y1="38" x2="20" y2="74" stroke="#5C4A1E" stroke-width="3"/>
  <line x1="80" y1="38" x2="80" y2="74" stroke="#5C4A1E" stroke-width="3"/>
  <line x1="50" y1="38" x2="50" y2="74" stroke="#5C4A1E" stroke-width="2"/>
  <rect x="12" y="30" width="76" height="9" fill="#C4956A" stroke="#8B6D3F" stroke-width="1.5"/>
  <line x1="28" y1="30" x2="28" y2="39" stroke="#8B6D3F" stroke-width="0.8"/>
  <line x1="44" y1="30" x2="44" y2="39" stroke="#8B6D3F" stroke-width="0.8"/>
  <line x1="60" y1="30" x2="60" y2="39" stroke="#8B6D3F" stroke-width="0.8"/>
  <line x1="76" y1="30" x2="76" y2="39" stroke="#8B6D3F" stroke-width="0.8"/>
  <line x1="12" y1="14" x2="88" y2="14" stroke="#5C4A1E" stroke-width="2"/>
  <line x1="12" y1="14" x2="12" y2="30" stroke="#5C4A1E" stroke-width="2.5"/>
  <line x1="88" y1="14" x2="88" y2="30" stroke="#5C4A1E" stroke-width="2.5"/>
  <line x1="25" y1="16" x2="25" y2="29" stroke="#8B6D3F" stroke-width="1"/>
  <line x1="38" y1="16" x2="38" y2="29" stroke="#8B6D3F" stroke-width="1"/>
  <line x1="52" y1="16" x2="52" y2="29" stroke="#8B6D3F" stroke-width="1"/>
  <line x1="65" y1="16" x2="65" y2="29" stroke="#8B6D3F" stroke-width="1"/>
  <line x1="78" y1="16" x2="78" y2="29" stroke="#8B6D3F" stroke-width="1"/>
  <text x="50" y="76" fill="#5C4A1E" font-size="9" font-weight="600" text-anchor="middle" font-family="sans-serif">5+ feet</text>
</svg>