<svg xmlns="http://www.w3.org/2000/svg" viewBox="0 0 100 80">

  <rect x="8" y="12" width="84" height="10" fill="#C4956A" stroke="#8B6D3F" stroke-width="0.8"/>
  <line x1="8" y1="13" x2="17" y2="21" stroke="#A07030" stroke-width="0.6"/>
  <line x1="17" y1="13" x2="26" y2="21" stroke="#A07030" stroke-width="0.6"/>
  <line x1="26" y1="13" x2="35" y2="21" stroke="#A07030" stroke-width="0.6"/>
  <line x1="35" y1="13" x2="44" y2="21" stroke="#A07030" stroke-width="0.6"/>
  <line x1="44" y1="13" x2="53" y2="21" stroke="#A07030" stroke-width="0.6"/>
  <line x1="53" y1="13" x2="62" y2="21" stroke="#A07030" stroke-width="0.6"/>
  <line x1="62" y1="13" x2="71" y2="21" stroke="#A07030" stroke-width="0.6"/>
  <line x1="71" y1="13" x2="80" y2="21" stroke="#A07030" stroke-width="0.6"/>
  <line x1="80" y1="13" x2="89" y2="21" stroke="#A07030" stroke-width="0.6"/>
  <line x1="89" y1="13" x2="98" y2="21" stroke="#A07030" stroke-width="0.6"/>
  <rect x="8" y="23" width="84" height="10" fill="#D4A878" stroke="#8B6D3F" stroke-width="0.8"/>
  <line x1="8" y1="24" x2="17" y2="32" stroke="#A07030" stroke-width="0.6"/>
  <line x1="17" y1="24" x2="26" y2="32" stroke="#A07030" stroke-width="0.6"/>
  <line x1="26" y1="24" x2="35" y2="32" stroke="#A07030" stroke-width="0.6"/>
  <line x1="35" y1="24" x2="44" y2="32" stroke="#A07030" stroke-width="0.6"/>
  <line x1="44" y1="24" x2="53" y2="32" stroke="#A07030" stroke-width="0.6"/>
  <line x1="53" y1="24" x2="62" y2="32" stroke="#A07030" stroke-width="0.6"/>
  <line x1="62" y1="24" x2="71" y2="32" stroke="#A07030" stroke-width="0.6"/>
  <line x1="71" y1="24" x2="80" y2="32" stroke="#A07030" stroke-width="0.6"/>
  <line x1="80" y1="24" x2="89" y2="32" stroke="#A07030" stroke-width="0.6"/>
  <line x1="89" y1="24" x2="98" y2="32" stroke="#A07030" stroke-width="0.6"/>
  <rect x="8" y="34" width="84" height="10" fill="#C4956A" stroke="#8B6D3F" stroke-width="0.8"/>
  <line x1="8" y1="35" x2="17" y2="43" stroke="#A07030" stroke-width="0.6"/>
  <line x1="17" y1="35" x2="26" y2="43" stroke="#A07030" stroke-width="0.6"/>
  <line x1="26" y1="35" x2="35" y2="43" stroke="#A07030" stroke-width="0.6"/>
  <line x1="35" y1="35" x2="44" y2="43" stroke="#A07030" stroke-width="0.6"/>
  <line x1="44" y1="35" x2="53" y2="43" stroke="#A07030" stroke-width="0.6"/>
  <line x1="53" y1="35" x2="62" y2="43" stroke="#A07030" stroke-width="0.6"/>
  <line x1="62" y1="35" x2="71" y2="43" stroke="#A07030" stroke-width="0.6"/>
  <line x1="71" y1="35" x2="80" y2="43" stroke="#A07030" stroke-width="0.6"/>
  <line x1="80" y1="35" x2="89" y2="43" stroke="#A07030" stroke-width="0.6"/>
  <line x1="89" y1="35" x2="98" y2="43" stroke="#A07030" stroke-width="0.6"/>
  <rect x="8" y="45" width="84" height="10" fill="#D4A878" stroke="#8B6D3F" stroke-width="0.8"/>
  <line x1="8" y1="46" x2="17" y2="54" stroke="#A07030" stroke-width="0.6"/>
  <line x1="17" y1="46" x2="26" y2="54" stroke="#A07030" stroke-width="0.6"/>
  <line x1="26" y1="46" x2="35" y2="54" stroke="#A07030" stroke-width="0.6"/>
  <line x1="35" y1="46" x2="44" y2="54" stroke="#A07030" stroke-width="0.6"/>
  <line x1="44" y1="46" x2="53" y2="54" stroke="#A07030" stroke-width="0.6"/>
  <line x1="53" y1="46" x2="62" y2="54" stroke="#A07030" stroke-width="0.6"/>
  <line x1="62" y1="46" x2="71" y2="54" stroke="#A07030" stroke-width="0.6"/>
  <line x1="71" y1="46" x2="80" y2="54" stroke="#A07030" stroke-width="0.6"/>
  <line x1="80" y1="46" x2="89" y2="54" stroke="#A07030" stroke-width="0.6"/>
  <line x1="89" y1="46" x2="98" y2="54" stroke="#A07030" stroke-width="0.6"/>
  <rect x="8" y="56" width="84" height="10" fill="#C4956A" stroke="#8B6D3F" stroke-width="0.8"/>
  <line x1="8" y1="57" x2="17" y2="65" stroke="#A07030" stroke-width="0.6"/>
  <line x1="17" y1="57" x2="26" y2="65" stroke="#A07030" stroke-width="0.6"/>
  <line x1="26" y1="57" x2="35" y2="65" stroke="#A07030" stroke-width="0.6"/>
  <line x1="35" y1="57" x2="44" y2="65" stroke="#A07030" stroke-width="0.6"/>
  <line x1="44" y1="57" x2="53" y2="65" stroke="#A07030" stroke-width="0.6"/>
  <line x1="53" y1="57" x2="62" y2="65" stroke="#A07030" stroke-width="0.6"/>
  <line x1="62" y1="57" x2="71" y2="65" stroke="#A07030" stroke-width="0.6"/>
  <line x1="71" y1="57" x2="80" y2="65" stroke="#A07030" stroke-width="0.6"/>
  <line x1="80" y1="57" x2="89" y2="65" stroke="#A07030" stroke-width="0.6"/>
  <line x1="89" y1="57" x2="98" y2="65" stroke="#A07030" stroke-width="0.6"/>
  <text x="50" y="75" fill="#5C4A1E" font-size="9" font-weight="600" text-anchor="middle" font-family="sans-serif">Cedar</text>
</svg>